<?xml version="1.0" standalone="no"?>
<!DOCTYPE svg PUBLIC "-//W3C//DTD SVG 20010904//EN"
 "http://www.w3.org/TR/2001/REC-SVG-20010904/DTD/svg10.dtd">
<svg version="1.0" xmlns="http://www.w3.org/2000/svg"
 width="170.000000pt" height="170.000000pt" viewBox="0 0 170.000000 170.000000"
 preserveAspectRatio="xMidYMid meet">
<metadata>
Created by potrace 1.14, written by Peter Selinger 2001-2017
</metadata>
<g transform="translate(0.000000,170.000000) scale(0.100000,-0.100000)"
fill="#000000" stroke="none">
<path d="M410 1435 c-69 -18 -109 -43 -170 -104 -68 -68 -119 -156 -159 -276
-31 -93 -34 -105 -56 -240 -35 -211 0 -422 84 -504 90 -88 232 -45 373 113 29
32 69 77 89 99 l36 41 260 0 c278 1 293 4 293 51 0 12 -8 30 -19 39 -17 15
-45 17 -282 14 -315 -4 -305 -1 -409 -124 -87 -103 -165 -164 -218 -171 -39
-5 -41 -4 -67 41 -59 101 -65 286 -14 505 49 211 137 351 253 402 92 39 168
30 301 -36 112 -56 173 -67 204 -36 41 41 21 79 -46 88 -21 2 -73 22 -115 44
-131 66 -229 82 -338 54z"/>
<path d="M1143 1436 c-65 -16 -83 -31 -83 -67 0 -40 29 -54 88 -40 83 19 100
20 155 7 115 -27 199 -121 265 -294 14 -36 19 -71 17 -119 -4 -113 -44 -177
-142 -225 -60 -29 -80 -48 -79 -73 1 -6 18 -43 39 -83 42 -80 70 -102 106 -83
27 15 27 50 1 101 l-20 40 37 23 c44 28 105 93 126 134 44 84 50 214 16 315
-97 282 -296 420 -526 364z"/>
<path d="M489 1224 c-8 -10 -14 -43 -14 -85 0 -39 -4 -69 -10 -70 -5 -1 -35
-1 -65 -1 -64 0 -100 -18 -100 -52 0 -40 29 -56 106 -56 l69 0 -1 -62 c-2 -68
11 -102 45 -111 12 -3 28 3 40 15 17 15 21 31 21 88 l0 70 66 0 c80 0 104 11
104 49 0 42 -24 56 -99 57 l-66 1 -5 70 c-3 38 -11 77 -19 87 -17 21 -55 21
-72 0z"/>
<path d="M1128 1148 c-46 -35 -34 -111 18 -124 57 -15 108 50 76 98 -8 12 -16
24 -17 25 -7 11 -63 12 -77 1z"/>
<path d="M1300 1147 c-35 -18 -41 -80 -9 -108 12 -10 33 -19 46 -19 21 0 62
30 64 48 0 4 2 15 4 24 4 22 -38 68 -62 68 -10 0 -29 -6 -43 -13z"/>
<path d="M1115 940 c-39 -43 -9 -110 50 -110 18 0 39 8 48 18 22 25 21 75 -1
95 -25 23 -75 21 -97 -3z"/>
<path d="M1287 942 c-23 -25 -21 -75 2 -96 27 -25 79 -17 103 15 16 21 17 30
8 54 -6 16 -17 33 -23 37 -22 14 -74 8 -90 -10z"/>
<path d="M1543 389 c-29 -11 -37 -42 -18 -78 22 -44 50 -56 81 -36 27 18 30
44 9 84 -16 32 -40 42 -72 30z"/>
</g>
</svg>
